Coordinates
version=1
nRows=13
nColumns=42
inDegrees=yes

Units are S.I. units (second, meters, Newtons, ...)
Angles are in degrees.

endheader
time	pelvis_tilt	pelvis_list	pelvis_rotation	pelvis_tx	pelvis_ty	pelvis_tz	hip_flexion_r	hip_adduction_r	hip_rotation_r	knee_angle_r	ankle_angle_r	subtalar_angle_r	mtp_angle_r	hip_flexion_l	hip_adduction_l	hip_rotation_l	knee_angle_l	ankle_angle_l	subtalar_angle_l	mtp_angle_l	lumbar_extension	lumbar_bending	lumbar_rotation	arm_flex_r	arm_add_r	arm_rot_r	elbow_flex_r	pro_sup_r	wrist_flex_r	wrist_dev_r	arm_flex_l	arm_add_l	arm_rot_l	elbow_flex_l	pro_sup_l	wrist_flex_l	wrist_dev_l	scapula_weld_r	clavicle_weld_r	scapula_weld_l	clavicle_weld_l
      5.37000000	    -13.80160347	      2.25191684	      6.28509138	      0.29120767	      0.94076825	     -0.02727960	     34.17613172	    -18.90799718	    -20.89114469	    -45.87093765	     -6.09253881	      0.00000000	      0.00000000	     34.34099590	     -6.31792024	    -12.85723536	    -42.19343181	     -7.80911909	      0.00000000	      0.00000000	      0.00000000	      0.00000000	      0.00000000	      0.00000000	    -13.80298115	      0.00000000	     75.16268132	     44.97087245	      0.00000000	      0.00000000	      0.00000000	    -13.80298115	      0.00000000	     75.16268132	     44.97087245	      0.00000000	      0.00000000	      0.00000000	      0.00000000	      0.00000000	      0.00000000
      5.38000000	    -14.34348886	      2.34864243	      6.41588338	      0.29478400	      0.95866738	     -0.02764266	     33.18427143	    -19.02870891	    -22.06729755	    -42.80391567	    -10.72041102	      0.00000000	      0.00000000	     33.09114562	     -6.09674025	    -13.95407074	    -38.54285920	    -12.63501238	      0.00000000	      0.00000000	      0.00000000	      0.00000000	      0.00000000	      0.00000000	    -13.80385583	      0.00000000	     75.16244876	     44.97098806	      0.00000000	      0.00000000	      0.00000000	    -13.80385583	      0.00000000	     75.16244876	     44.97098806	      0.00000000	      0.00000000	      0.00000000	      0.00000000	      0.00000000	      0.00000000
      5.39000000	    -14.00108210	      2.73523737	      6.55980300	      0.29880160	      0.97694119	     -0.02811092	     31.37567295	    -19.56291910	    -23.61111835	    -40.18988003	    -14.68988002	      0.00000000	      0.00000000	     30.97687771	     -5.78284217	    -15.56417326	    -35.21435719	    -17.11376795	      0.00000000	      0.00000000	      0.00000000	      0.00000000	      0.00000000	      0.00000000	    -13.80559590	      0.00000000	     75.16198656	     44.97121692	      0.00000000	      0.00000000	      0.00000000	    -13.80559590	      0.00000000	     75.16198656	     44.97121692	      0.00000000	      0.00000000	      0.00000000	      0.00000000	      0.00000000	      0.00000000
      5.40000000	    -13.59943714	      3.04181100	      6.59214109	      0.30258187	      0.99460025	     -0.02856083	     29.67495520	    -19.89970754	    -24.87316767	    -37.78079764	    -18.05456014	      0.00000000	      0.00000000	     28.99271510	     -5.46674827	    -16.86271724	    -32.23010923	    -20.85097397	      0.00000000	      0.00000000	      0.00000000	      0.00000000	      0.00000000	      0.00000000	    -13.80864325	      0.00000000	     75.16117864	     44.97161418	      0.00000000	      0.00000000	      0.00000000	    -13.80864325	      0.00000000	     75.16117864	     44.97161418	      0.00000000	      0.00000000	      0.00000000	      0.00000000	      0.00000000	      0.00000000
      5.41000000	    -13.49312511	      3.12741353	      6.57302866	      0.30590100	      1.01075056	     -0.02881659	     28.53101609	    -20.02583859	    -26.02719476	    -35.77468986	    -20.75178128	      0.00000000	      0.00000000	     27.69185070	     -5.42663969	    -18.16431289	    -29.91327520	    -23.92941865	      0.00000000	      0.00000000	      0.00000000	      0.00000000	      0.00000000	      0.00000000	    -13.81097269	      0.00000000	     75.16056235	     44.97191492	      0.00000000	      0.00000000	      0.00000000	    -13.81097269	      0.00000000	     75.16056235	     44.97191492	      0.00000000	      0.00000000	      0.00000000	      0.00000000	      0.00000000	      0.00000000
      5.42000000	    -13.25566492	      3.19304650	      6.56137240	      0.30891291	      1.02606513	     -0.02904797	     27.39764928	    -20.09111789	    -26.94371820	    -34.04289964	    -22.70440412	      0.00000000	      0.00000000	     26.54039661	     -5.42486080	    -19.32148638	    -28.17695479	    -26.22203588	      0.00000000	      0.00000000	      0.00000000	      0.00000000	      0.00000000	      0.00000000	    -13.81421944	      0.00000000	     75.15970542	     44.97232947	      0.00000000	      0.00000000	      0.00000000	    -13.81421944	      0.00000000	     75.15970542	     44.97232947	      0.00000000	      0.00000000	      0.00000000	      0.00000000	      0.00000000	      0.00000000
      5.43000000	    -13.06050086	      3.15421466	      6.48650949	      0.31157979	      1.04021259	     -0.02915597	     26.52098771	    -20.02283735	    -27.63115743	    -32.65494063	    -23.91115308	      0.00000000	      0.00000000	     25.70888650	     -5.56839276	    -20.31811053	    -26.99358037	    -27.77071956	      0.00000000	      0.00000000	      0.00000000	      0.00000000	      0.00000000	      0.00000000	    -13.81721620	      0.00000000	     75.15891641	     44.97270775	      0.00000000	      0.00000000	      0.00000000	    -13.81721620	      0.00000000	     75.15891641	     44.97270775	      0.00000000	      0.00000000	      0.00000000	      0.00000000	      0.00000000	      0.00000000
      5.44000000	    -13.05027782	      3.06930503	      6.40793621	      0.31374208	      1.05296856	     -0.02921811	     26.04306163	    -19.91102127	    -28.03552533	    -31.58449333	    -24.50316240	      0.00000000	      0.00000000	     25.34788493	     -5.75218628	    -21.06603248	    -26.34266146	    -28.69424027	      0.00000000	      0.00000000	      0.00000000	      0.00000000	      0.00000000	      0.00000000	    -13.81841848	      0.00000000	     75.15860042	     44.97285834	      0.00000000	      0.00000000	      0.00000000	    -13.81841848	      0.00000000	     75.15860042	     44.97285834	      0.00000000	      0.00000000	      0.00000000	      0.00000000	      0.00000000	      0.00000000
      5.45000000	    -12.79011298	      2.90477401	      6.26013447	      0.31572287	      1.06493505	     -0.02910148	     25.42031219	    -19.63844846	    -28.24637932	    -30.70963965	    -24.46689337	      0.00000000	      0.00000000	     24.91866583	     -6.09253000	    -21.64665243	    -26.12092711	    -28.95524278	      0.00000000	      0.00000000	      0.00000000	      0.00000000	      0.00000000	      0.00000000	    -13.82026964	      0.00000000	     75.15811451	     44.97308877	      0.00000000	      0.00000000	      0.00000000	    -13.82026964	      0.00000000	     75.15811451	     44.97308877	      0.00000000	      0.00000000	      0.00000000	      0.00000000	      0.00000000	      0.00000000
      5.46000000	    -12.65011093	      2.72561483	      6.12131829	      0.31728777	      1.07557286	     -0.02899562	     25.07453253	    -19.35152585	    -28.23630009	    -30.06059078	    -24.02324723	      0.00000000	      0.00000000	     24.81100589	     -6.41161351	    -21.89548427	    -26.25859554	    -28.75144649	      0.00000000	      0.00000000	      0.00000000	      0.00000000	      0.00000000	      0.00000000	    -13.82224544	      0.00000000	     75.15759664	     44.97333307	      0.00000000	      0.00000000	      0.00000000	    -13.82224544	      0.00000000	     75.15759664	     44.97333307	      0.00000000	      0.00000000	      0.00000000	      0.00000000	      0.00000000	      0.00000000
      5.47000000	    -12.53864671	      2.56761556	      5.97634647	      0.31849885	      1.08501932	     -0.02888928	     24.89100257	    -19.07372118	    -28.03574843	    -29.59856506	    -23.27270511	      0.00000000	      0.00000000	     24.86782104	     -6.67688375	    -21.86919598	    -26.63651373	    -28.24650783	      0.00000000	      0.00000000	      0.00000000	      0.00000000	      0.00000000	      0.00000000	    -13.82338408	      0.00000000	     75.15729858	     44.97347305	      0.00000000	      0.00000000	      0.00000000	    -13.82338408	      0.00000000	     75.15729858	     44.97347305	      0.00000000	      0.00000000	      0.00000000	      0.00000000	      0.00000000	      0.00000000
      5.48000000	    -12.45537485	      2.48738875	      5.85526595	      0.31954242	      1.09338684	     -0.02882366	     24.77659611	    -18.86812620	    -27.77388137	    -29.16330601	    -22.54425934	      0.00000000	      0.00000000	     25.00284471	     -6.82706573	    -21.71049175	    -27.09045100	    -27.70374469	      0.00000000	      0.00000000	      0.00000000	      0.00000000	      0.00000000	      0.00000000	    -13.82396774	      0.00000000	     75.15714593	     44.97354454	      0.00000000	      0.00000000	      0.00000000	    -13.82396774	      0.00000000	     75.15714593	     44.97354454	      0.00000000	      0.00000000	      0.00000000	      0.00000000	      0.00000000	      0.00000000
      5.49000000	    -12.34761998	      2.11791616	      5.64970850	      0.32020039	      1.10055260	     -0.02846465	     24.74889815	    -18.27729562	    -27.39958323	    -28.82739107	    -21.51048581	      0.00000000	      0.00000000	     25.29760092	     -7.30960891	    -21.31184229	    -27.80119669	    -26.75492796	      0.00000000	      0.00000000	      0.00000000	      0.00000000	      0.00000000	      0.00000000	    -13.82532546	      0.00000000	     75.15679104	     44.97371030	      0.00000000	      0.00000000	      0.00000000	    -13.82532546	      0.00000000	     75.15679104	     44.97371030	      0.00000000	      0.00000000	      0.00000000	      0.00000000	      0.00000000	      0.00000000
